<svg xmlns="http://www.w3.org/2000/svg" width="20" height="20" viewBox="0 0 20 20">
  <g id="add-user" transform="translate(0)">
    <g id="그룹_891" data-name="그룹 891" transform="translate(0)">
      <g id="그룹_890" data-name="그룹 890">
        <path id="패스_3403" data-name="패스 3403" d="M14.359,10.036a10.164,10.164,0,0,0-1.176-.472,5.312,5.312,0,1,0-6.361,0A10.161,10.161,0,0,0,.051,17.138,2.373,2.373,0,0,0,2.371,20h9.621a.781.781,0,0,0,0-1.562H2.371a.794.794,0,0,1-.625-.3.816.816,0,0,1-.165-.684,8.632,8.632,0,0,1,8.213-6.835q.1,0,.207,0t.209,0a8.51,8.51,0,0,1,3.478.826.781.781,0,0,0,.671-1.411Zm-4.168-.978-.191,0-.189,0a3.75,3.75,0,1,1,.38,0Z" transform="translate(0)" fill="#fff"/>
      </g>
    </g>
    <g id="그룹_893" data-name="그룹 893" transform="translate(12.578 12.578)">
      <g id="그룹_892" data-name="그룹 892">
        <path id="패스_3404" data-name="패스 3404" d="M328.641,324.93h-2.148v-2.148a.781.781,0,0,0-1.562,0v2.148h-2.148a.781.781,0,0,0,0,1.563h2.148v2.148a.781.781,0,0,0,1.563,0v-2.148h2.148a.781.781,0,0,0,0-1.562Z" transform="translate(-322 -322)" fill="#fff"/>
      </g>
    </g>
  </g>
</svg>
