<svg xmlns="http://www.w3.org/2000/svg" width="26.5" height="26.5" viewBox="0 0 26.5 26.5">
  <g id="dollar" transform="translate(0.25 0.25)">
    <g id="그룹_1038" data-name="그룹 1038" transform="translate(0)">
      <g id="그룹_1037" data-name="그룹 1037">
        <path id="패스_3431" data-name="패스 3431" d="M194.308,146.391a4.429,4.429,0,0,0-1.145-.638,12,12,0,0,0-1.2-.432v-3.278a1.221,1.221,0,0,1,1.056.418,1.893,1.893,0,0,1,.4,1.214h1.721a3.181,3.181,0,0,0-.261-1.337,2.674,2.674,0,0,0-.686-.946,2.989,2.989,0,0,0-1.049-.562,3.518,3.518,0,0,0-1.152-.185v-1.008h-.933v1.022a3.387,3.387,0,0,0-1.166.2,3.429,3.429,0,0,0-1.1.583,2.743,2.743,0,0,0-.754.939,2.935,2.935,0,0,0-.281,1.31,3.052,3.052,0,0,0,.3,1.433,2.9,2.9,0,0,0,.761.953,4.443,4.443,0,0,0,1.1.624,10.1,10.1,0,0,0,1.1.411v3.758a1.577,1.577,0,0,1-1.372-.624,2.531,2.531,0,0,1-.439-1.618h-1.687a3.977,3.977,0,0,0,.247,1.536,3.1,3.1,0,0,0,.754,1.131,3.312,3.312,0,0,0,1.159.686,3.841,3.841,0,0,0,1.372.267v1.1h.905v-1.083a4.033,4.033,0,0,0,1.269-.288,3.333,3.333,0,0,0,1.132-.686,3,3,0,0,0,.761-1.07,3.792,3.792,0,0,0,.281-1.515,3.018,3.018,0,0,0-.3-1.413A2.94,2.94,0,0,0,194.308,146.391Zm-3.25-1.269a3.628,3.628,0,0,1-.5-.192,2,2,0,0,1-.542-.3,1.555,1.555,0,0,1-.384-.453,1.261,1.261,0,0,1-.151-.638,1.406,1.406,0,0,1,.446-1.159,1.625,1.625,0,0,1,1.131-.35Zm2.112,5.253v-.021a1.934,1.934,0,0,1-1.207.487v-3.593a5.205,5.205,0,0,1,.549.219,2.333,2.333,0,0,1,.6.329,1.44,1.44,0,0,1,.583,1.227A1.659,1.659,0,0,1,193.17,150.375Z" transform="translate(-178.553 -133.493)" fill="#333" stroke="#333" stroke-width="0.5"/>
        <path id="패스_3432" data-name="패스 3432" d="M13,0A13,13,0,1,0,26,13,13,13,0,0,0,13,0Zm0,24.818A11.818,11.818,0,1,1,24.818,13,11.818,11.818,0,0,1,13,24.818Z" transform="translate(0)" fill="#333" stroke="#333" stroke-width="0.5"/>
      </g>
    </g>
  </g>
</svg>
