<svg xmlns="http://www.w3.org/2000/svg" width="20.497" height="20.474" viewBox="0 0 20.497 20.474">
  <g id="gift" transform="translate(0.25 -0.046)">
    <g id="그룹_1036" data-name="그룹 1036" transform="translate(0 0.296)">
      <path id="패스_3430" data-name="패스 3430" d="M19.562,5.49H13.443a5.84,5.84,0,0,0,1.489-1.037,2.451,2.451,0,0,0,0-3.462,2.506,2.506,0,0,0-3.462,0A6.769,6.769,0,0,0,10,3.48,6.769,6.769,0,0,0,8.527.99a2.506,2.506,0,0,0-3.462,0,2.451,2.451,0,0,0,0,3.462A5.84,5.84,0,0,0,6.554,5.49H.435A.435.435,0,0,0,0,5.924V9.4a.435.435,0,0,0,.435.435H.869v10a.435.435,0,0,0,.435.435H18.693a.435.435,0,0,0,.435-.435v-10h.435A.435.435,0,0,0,20,9.4V5.924A.435.435,0,0,0,19.562,5.49ZM7.825,19.4H1.739V9.837H7.825Zm0-10.433H.869V6.359H7.825ZM5.679,3.838A1.579,1.579,0,1,1,7.912,1.605,7.006,7.006,0,0,1,9.566,5.476s0,.01,0,.014H9.518A7,7,0,0,1,5.679,3.838ZM11.3,19.4H8.694V9.837H11.3Zm0-10.433H8.694V6.359H11.3ZM10.479,5.49h-.048s0-.01,0-.014a7.007,7.007,0,0,1,1.655-3.871,1.579,1.579,0,0,1,2.233,2.233A7.006,7.006,0,0,1,10.479,5.49ZM18.258,19.4H12.172V9.837h6.086Zm.869-10.433H12.172V6.359h6.956Z" transform="translate(0 -0.296)" fill="#25b2cd" stroke="#25b2cd" stroke-width="0.5"/>
    </g>
  </g>
</svg>
