<svg xmlns="http://www.w3.org/2000/svg" width="20.344" height="20.304" viewBox="0 0 20.344 20.304">
  <path id="phone-call" d="M20.3,16.361a3,3,0,0,1-.77,2.125l-.021.023-.029.031A6.421,6.421,0,0,1,14.814,20.3h-.045A11.944,11.944,0,0,1,10.2,19.248a.793.793,0,1,1,.628-1.456,10.36,10.36,0,0,0,3.953.926h.036a4.885,4.885,0,0,0,3.534-1.286l.006-.006a1.427,1.427,0,0,0-.072-1.987c-2.13-2.053-3.135-1.9-4.065-1l-1.481,1.47a.793.793,0,0,1-.881.162,16.029,16.029,0,0,1-4.328-3.189l-.1-.1A16.028,16.028,0,0,1,4.231,8.452a.793.793,0,0,1,.162-.881L5.863,6.09c.907-.93,1.056-1.936-1-4.065a1.427,1.427,0,0,0-1.987-.072l-.006.005a4.9,4.9,0,0,0-1.286,3.57c.014,2.849,1.63,6.159,4.322,8.854l.007.007a17.754,17.754,0,0,0,1.745,1.519A.793.793,0,0,1,6.7,17.166,19.337,19.337,0,0,1,4.8,15.518l-.008-.007C1.809,12.525.017,8.8,0,5.536A6.435,6.435,0,0,1,1.765.822L1.8.793l.023-.02A3.018,3.018,0,0,1,6.008.923a7.377,7.377,0,0,1,1.94,2.921A3.269,3.269,0,0,1,7,7.2l0,0L5.927,8.277a16.066,16.066,0,0,0,2.615,3.381l.1.1a15.967,15.967,0,0,0,3.38,2.616L13.1,13.313l0,0a3.269,3.269,0,0,1,3.357-.952,7.374,7.374,0,0,1,2.921,1.94,3,3,0,0,1,.921,2.064ZM13.047,4.838h2.459V7.3a.793.793,0,1,0,1.586,0V4.838h2.459a.793.793,0,1,0,0-1.586H17.092V.793a.793.793,0,0,0-1.586,0V3.252H13.047a.793.793,0,1,0,0,1.586Zm0,0" transform="translate(0)" fill="#25b2cd"/>
</svg>
